<svg width="128" height="128" viewBox="0 0 64 64" fill="none" xmlns="http://www.w3.org/2000/svg">
  <circle cx="32" cy="32" r="30" fill="#FFF7DF" stroke="#D8C37C" stroke-width="1.5" />
  <path d="M26.8 22.4C28 19.9 29.6 18.6 32 18C34.4 18.6 36 19.9 37.2 22.4" fill="none" stroke="#1B2D47" stroke-width="1.9" stroke-linecap="round" />
  <path d="M26.6 22.7L23.5 19.4" fill="none" stroke="#1B2D47" stroke-width="1.7" stroke-linecap="round" />
  <path d="M37.4 22.7L40.5 19.4" fill="none" stroke="#1B2D47" stroke-width="1.7" stroke-linecap="round" />
  <ellipse cx="23.8" cy="31" rx="8.8" ry="7" fill="#FFFEF7" stroke="#1B2D47" stroke-width="1.6" />
  <ellipse cx="40.2" cy="31" rx="8.8" ry="7" fill="#FFFEF7" stroke="#1B2D47" stroke-width="1.6" />
  <circle cx="32" cy="28.8" r="4.9" fill="#F6C64F" stroke="#1B2D47" stroke-width="1.8" />
  <path d="M32 30.9C26.7 30.9 22.4 35.1 22.4 40.5C22.4 46.6 26.7 51.3 32 51.3C37.3 51.3 41.6 46.6 41.6 40.5C41.6 35.1 37.3 30.9 32 30.9Z" fill="#F6C64F" stroke="#1B2D47" stroke-width="1.8" />
  <path d="M26.9 36.1H37.1" stroke="#1B2D47" stroke-width="1.8" stroke-linecap="round" />
  <path d="M26.5 40.6H37.4" stroke="#1B2D47" stroke-width="1.8" stroke-linecap="round" />
  <path d="M29.8 45.2L31.8 47L36.3 41.8" fill="none" stroke="#FFFAF0" stroke-width="2.2" stroke-linecap="round" />
  <path d="M32 51.3L29.9 55H34.1L32 51.3Z" fill="#1B2D47" />
</svg>
